<svg height="400pt" viewBox="0 0 400 400" width="400pt" xmlns="http://www.w3.org/2000/svg"><g ><path d="m200 124.476562c-5.523438 0-10-4.476562-10-10v-104.476562c0-5.523438 4.476562-10 10-10s10 4.476562 10 10v104.476562c0 5.523438-4.476562 10-10 10zm0 0"/><path d="m200 400c-5.523438 0-10-4.476562-10-10v-104.476562c0-5.523438 4.476562-10 10-10s10 4.476562 10 10v104.476562c0 5.523438-4.476562 10-10 10zm0 0"/><path d="m390 210h-104.476562c-5.523438 0-10-4.476562-10-10s4.476562-10 10-10h104.476562c5.523438 0 10 4.476562 10 10s-4.476562 10-10 10zm0 0"/><path d="m114.476562 210h-104.476562c-5.523438 0-10-4.476562-10-10s4.476562-10 10-10h104.476562c5.523438 0 10 4.476562 10 10s-4.476562 10-10 10zm0 0"/></g><path d="m200 337.871094c-76.023438 0-137.871094-61.847656-137.871094-137.871094s61.847656-137.871094 137.871094-137.871094 137.871094 61.847656 137.871094 137.871094-61.847656 137.871094-137.871094 137.871094zm0-255.742188c-65.097656 0-117.871094 52.773438-117.871094 117.871094s52.773438 117.871094 117.871094 117.871094 117.871094-52.773438 117.871094-117.871094-52.773438-117.871094-117.871094-117.871094zm0 0" /><path d="m200 246.730469c-25.808594 0-46.730469-20.921875-46.730469-46.730469s20.921875-46.730469 46.730469-46.730469 46.730469 20.921875 46.730469 46.730469c-.027344 25.796875-20.933594 46.703125-46.730469 46.730469zm0-73.460938c-14.765625 0-26.730469 11.964844-26.730469 26.730469s11.964844 26.730469 26.730469 26.730469 26.730469-11.964844 26.730469-26.730469c-.015625-14.757812-11.972657-26.714844-26.730469-26.730469zm0 0" /></svg>