<svg height="454pt" viewBox="0 0 454.30043 454" width="454pt" xmlns="http://www.w3.org/2000/svg"><path d="m304.300781 369.648438c.003907-49.703126 40.296875-89.996094 90-90 6.386719.003906 12.753907.671874 19 2-28.410156-24.632813-69.136719-29.015626-102.136719-10.992188-33 18.027344-51.316406 54.664062-45.9375 91.882812 5.378907 37.214844 33.320313 67.167969 70.074219 75.109376-19.710937-17.089844-31.027343-41.90625-31-68zm0 0" fill="transparent"/><path d="m123.601562 125.851562c0-52.855468 42.84375-95.703124 95.699219-95.703124 3.101563 0 6.101563.203124 9.101563.402343-32.089844-25.171875-76.597656-27.246093-110.890625-5.171875-34.289063 22.070313-50.832031 63.445313-41.207031 103.078125 9.625 39.628907 43.300781 68.808594 83.894531 72.691407-23.109375-18.148438-36.605469-45.910157-36.597657-75.296876zm0 0" fill="transparent"/><path d="m219.199219 265.351562c11.292969-.011718 22.554687 1.160157 33.601562 3.5-25.121093-15.5-54.085937-23.640624-83.601562-23.5-88.097657.199219-159.398438 70.5-159.199219 166.199219l51-.101562c9.101562-85.300781 76.402344-145.898438 158.199219-146.097657zm0 0" fill="transparent"/><g ><path d="m169.300781 211.550781c58.375 0 105.699219-47.324219 105.699219-105.699219 0-58.378906-47.324219-105.703124-105.699219-105.703124s-105.699219 47.324218-105.699219 105.703124c.054688 58.351563 47.34375 105.644532 105.699219 105.699219zm0-191.402343c47.332031 0 85.699219 38.371093 85.699219 85.703124 0 47.328126-38.367188 85.699219-85.699219 85.699219s-85.699219-38.371093-85.699219-85.699219c.054688-47.308593 38.390626-85.644531 85.699219-85.703124zm0 0"/><path d="m283 400.949219-262.699219.5c2.101563-39.300781 17.398438-75.199219 43.398438-101.898438 27.703125-28.5 65.203125-44.199219 105.5-44.199219h.300781c38.152344-.199218 74.882812 14.472657 102.402344 40.898438 3.972656 3.8125 10.289062 3.675781 14.097656-.300781 3.8125-3.976563 3.675781-10.289063-.300781-14.097657-31.253907-30.019531-72.964844-46.695312-116.296875-46.5h-.300782c-45.800781.097657-88.300781 17.898438-119.800781 50.296876-31.898437 32.703124-49.3984372 77.402343-49.300781 125.902343.015625 5.515625 4.484375 9.984375 10 10l273-.5c5.550781 0 10.050781-4.5 10.050781-10.050781s-4.5-10.050781-10.050781-10.050781zm0 0"/><path d="m384.800781 327.449219h-61c-5.523437 0-10 4.476562-10 10 0 5.523437 4.476563 10 10 10h61c5.523438 0 10-4.476563 10-10 0-5.523438-4.476562-10-10-10zm0 0"/><path d="m352.800781 364.050781h-29c-5.523437 0-10 4.476563-10 10 0 5.523438 4.476563 10 10 10h29c5.523438 0 10-4.476562 10-10 0-5.523437-4.476562-10-10-10zm0 0"/></g><path d="m454.300781 349.648438c.011719-43.453126-28.035156-81.945313-69.402343-95.25-41.371094-13.304688-86.597657 1.621093-111.917969 36.9375-25.320313 35.316406-24.945313 82.941406.933593 117.851562 25.875 34.910156 71.332032 49.121094 112.488282 35.164062l49.699218 8.699219c.5625.078125 1.128907.113281 1.699219.097657 3.34375-.019532 6.460938-1.707032 8.304688-4.496094 1.847656-2.789063 2.183593-6.316406.894531-9.402344l-12.597656-29.699219c5.433594-7.152343 9.839844-15.027343 13.097656-23.402343 4.496094-11.644532 6.800781-24.015626 6.800781-36.5zm-25.5 29.101562c-3.261719 8.261719-7.855469 15.929688-13.601562 22.699219-2.488281 2.871093-3.109375 6.914062-1.597657 10.402343l7.800782 18.296876-34.101563-6c-.5625-.082032-1.132812-.113282-1.699219-.097657-1.195312-.003906-2.378906.199219-3.5.597657-32.777343 12.148437-69.648437 1.601562-91.046874-26.039063-21.398438-27.640625-22.371094-65.972656-2.402344-94.664063 19.96875-28.691406 56.253906-41.09375 89.605468-30.625 33.351563 10.464844 56.046876 41.375 56.042969 76.328126.03125 9.964843-1.832031 19.839843-5.5 29.101562zm0 0" /></svg>