<svg height="400pt" viewBox="0 -37 400 400" width="400pt" xmlns="http://www.w3.org/2000/svg"><path d="m66 10.417969h50.675781v259.398437h-50.675781zm0 0" fill="transparent"/><path d="m236.4375 110.417969h46.066406v160.191406h-46.066406zm0 0" fill="transparent"/><path d="m326.675781 279.816406h-92.132812c-5.523438 0-10-4.480468-10-10v-158.539062c0-5.523438 4.476562-10 10-10h92.132812c5.523438 0 10 4.476562 10 10v158.539062c0 5.519532-4.476562 10-10 10zm-82.132812-20h72.132812v-138.539062h-72.132812zm0 0" /><g ><path d="m175 10c0-5.523438-4.476562-10-10-10h-101c-5.523438 0-10 4.476562-10 10v259c0 5.523438 4.476562 10 10 10h101c5.523438 0 10-4.476562 10-10zm-101 10h81v240h-81zm0 0"/><path d="m390 306h-380c-5.523438 0-10 4.476562-10 10s4.476562 10 10 10h380c5.523438 0 10-4.476562 10-10s-4.476562-10-10-10zm0 0"/></g></svg>