<svg height="436pt" viewBox="0 -18 436.00025 436" width="436pt" xmlns="http://www.w3.org/2000/svg"><path d="m89.78125 360c-22.089844 0-40-17.910156-40-40v-238.851562c-.003906-3.375.421875-6.734376 1.261719-10h-1.261719c-22.089844 0-40 17.90625-40 40v238.851562c0 22.089844 17.910156 40 40 40h336.4375c18.242188 0 34.175781-12.339844 38.742188-30zm0 0" fill="transparent"/><path d="m172.101562 40.300781v-30.300781h-19.726562c-11.195312 0-20.273438 9.074219-20.273438 20.273438v40.027343h171.796876v-30zm0 0" fill="transparent"/><path d="m9.78125 221.304688h415.664062v20h-415.664062zm0 0"/><path d="m9.78125 150.34375h415.664062v20h-415.664062zm0 0"/><path d="m386.21875 61h-72.21875v-30.726562c-.070312-16.730469-13.644531-30.257813-30.375-30.273438h-131.25c-16.730469.015625-30.304688 13.542969-30.375 30.273438v30.726562h-72.21875c-27.570312 0-49.78125 22.578125-49.78125 50.148438v238.851562c-.0742188 27.542969 22.195312 49.929688 49.738281 50h336.480469c27.542969-.046875 49.832031-22.414062 49.78125-49.957031v-238.898438c0-27.566406-22.210938-50.144531-49.78125-50.144531zm-244.21875-30.726562c.054688-5.691407 4.683594-10.273438 10.375-10.273438h131.25c5.691406 0 10.320312 4.582031 10.375 10.273438v30.726562h-152zm274 319.726562c0 16.570312-13.429688 30-30 30h-336c-16.570312 0-30-13.429688-30-30v-239c0-16.570312 13.429688-30 30-30h336c16.570312 0 30 13.429688 30 30zm0 0"/></svg>