<svg height="400pt" viewBox="-40 0 400 400.005" width="400pt" xmlns="http://www.w3.org/2000/svg"><path d="m84.816406 350.003906c-19.152344 0-34.675781-15.523437-34.675781-34.675781v-305.324219h-5.324219c-19.152344 0-34.675781 15.527344-34.675781 34.675782v310.648437c0 19.152344 15.523437 34.675781 34.675781 34.675781h230.375c19.148438 0 34.675782-15.523437 34.675782-34.675781v-5.324219zm0 0" fill="transparent"/><path d="m205.191406 276.546875c-3.886718-.003906-7.421875-2.257813-9.0625-5.785156-1.640625-3.523438-1.085937-7.679688 1.417969-10.65625l22.457031-26.683594-22.460937-26.683594c-3.488281-4.230469-2.917969-10.480469 1.273437-14.011719 4.195313-3.53125 10.453125-3.023437 14.027344 1.132813l27.878906 33.125c3.132813 3.722656 3.132813 9.15625 0 12.878906l-27.875 33.121094c-1.898437 2.261719-4.703125 3.566406-7.65625 3.5625zm0 0" /><path d="m114.8125 276.546875c-2.953125.003906-5.753906-1.300781-7.652344-3.5625l-27.882812-33.121094c-3.132813-3.722656-3.132813-9.15625 0-12.878906l27.882812-33.125c3.570313-4.15625 9.828125-4.664063 14.023438-1.132813 4.195312 3.53125 4.761718 9.78125 1.273437 14.011719l-22.453125 26.683594 22.457032 26.683594c2.503906 2.972656 3.058593 7.128906 1.417968 10.65625-1.640625 3.523437-5.175781 5.78125-9.0625 5.78125zm0 0" /><g ><path d="m151.585938 298.628906c-5.527344 0-10.007813-4.476562-10.011719-10-.003907-.507812.035156-1.007812.109375-1.507812l16.859375-110.398438c.835937-5.460937 5.9375-9.210937 11.398437-8.378906 5.457032.835938 9.207032 5.9375 8.375 11.398438l-16.859375 110.398437c-.746093 4.875-4.9375 8.480469-9.871093 8.488281zm0 0"/><path d="m319.878906 91.214844s-.035156-.007813-.035156-.011719c-.039062-.335937-.097656-.671875-.175781-1.003906 0-.007813-.007813-.011719-.011719-.015625-.070312-.328125-.160156-.652344-.257812-.96875-.011719-.03125-.027344-.0625-.039063-.101563-.09375-.285156-.199219-.566406-.320313-.839843-.027343-.066407-.0625-.132813-.097656-.199219-.109375-.234375-.222656-.464844-.347656-.691407-.050781-.09375-.109375-.183593-.167969-.277343-.113281-.1875-.226562-.375-.351562-.558594-.078125-.105469-.160157-.210937-.238281-.316406-.121094-.15625-.242188-.316407-.371094-.464844-.089844-.109375-.1875-.210937-.285156-.316406-.132813-.140625-.265626-.277344-.398438-.414063-.042969-.039062-.082031-.085937-.125-.128906l-88.902344-82.246094c-.066406-.066406-.144531-.121094-.214844-.183594-.121093-.101562-.242187-.207031-.367187-.304687-.125-.101563-.242187-.1875-.367187-.277344-.125-.089843-.269532-.195312-.40625-.285156-.121094-.078125-.246094-.148437-.371094-.222656-.152344-.089844-.300782-.175781-.460938-.257813-.117187-.0625-.234375-.117187-.355468-.171875-.167969-.078125-.335938-.160156-.507813-.226562-.121094-.050781-.238281-.089844-.359375-.132813-.179688-.0625-.355469-.128906-.539062-.183594-.128907-.035156-.257813-.066406-.386719-.097656-.179688-.046875-.351563-.09375-.535157-.128906-.164062-.03125-.332031-.050781-.5-.074219-.144531-.0234372-.292968-.050781-.441406-.0624998-.324218-.03125-.648437-.0507812-.976562-.0507812h-176.148438c-24.691406.015625-44.722656 19.992188-44.81249975 44.683594v310.644531c.08984375 24.6875 20.12109375 44.660156 44.81249975 44.675781h230.375c24.6875-.015625 44.71875-19.988281 44.8125-44.675781v-263.074219c-.023437-.347656-.066406-.695312-.125-1.039062zm-88.875-58.335938 53.328125 49.125h-46.03125c-3.921875.113282-7.1875-2.976562-7.296875-6.898437 0-.066407 0-.132813 0-.191407zm44.1875 347.125h-230.375c-13.648437-.003906-24.734375-11.027344-24.8125-24.675781v-310.644531c.078125-13.648438 11.164063-24.675782 24.8125-24.679688h166.1875v54.910156c.019532 14.980469 12.179688 27.109376 27.160156 27.089844h61.839844v253.324219c-.082031 13.648437-11.164062 24.671875-24.8125 24.675781zm0 0"/></g></svg>