<svg height="400pt" viewBox="0 -17 400 400" width="400pt" xmlns="http://www.w3.org/2000/svg"><path d="m95.011719 138.402344 104.988281 218.339844-190-218.339844zm0 0" fill="transparent"/><path d="m147.5 10-52.488281 128.402344h-85.011719l78.152344-128.402344zm0 0" fill="transparent"/><path d="m200.007812 366.742188c-3.847656.003906-7.355468-2.199219-9.019531-5.667969l-104.988281-218.339844c-1.226562-2.550781-1.3125-5.5-.242188-8.117187l52.488282-128.402344c2.089844-5.109375 7.929687-7.5625 13.042968-5.472656 5.113282 2.089843 7.5625 7.929687 5.472657 13.042968l-50.8125 124.285156 103.066406 214.335938c1.484375 3.097656 1.277344 6.742188-.550781 9.652344s-5.019532 4.679687-8.457032 4.683594zm0 0"/><path d="m199.992188 366.742188c-3.433594-.003907-6.628907-1.773438-8.457032-4.683594s-2.035156-6.554688-.546875-9.652344l103.066407-214.335938-50.8125-124.285156c-2.089844-5.113281.363281-10.953125 5.476562-13.042968 5.109375-2.089844 10.949219.363281 13.039062 5.472656l52.488282 128.402344c1.074218 2.617187.984375 5.566406-.242188 8.117187l-104.988281 218.335937c-1.667969 3.46875-5.175781 5.675782-9.023437 5.671876zm0 0"/><path d="m398.183594 144.136719c.070312-.101563.132812-.191407.203125-.292969.097656-.152344.191406-.3125.285156-.472656.058594-.097656.117187-.199219.171875-.300782.101562-.183593.1875-.371093.273438-.5625.042968-.101562.09375-.199218.132812-.300781.101562-.238281.191406-.484375.269531-.730469.035157-.117187.066407-.234374.097657-.355468.050781-.171875.09375-.34375.136718-.519532.027344-.121093.050782-.242187.074219-.367187.035156-.195313.066406-.390625.089844-.585937.011719-.101563.027343-.203126.035156-.300782.03125-.300781.046875-.601562.046875-.910156v-.027344c0-.046875-.007812-.085937-.007812-.132812 0-.253906-.015626-.507813-.039063-.761719-.007813-.105469-.019531-.210937-.03125-.3125-.027344-.203125-.054687-.398437-.09375-.59375-.019531-.113281-.039063-.226563-.0625-.335937-.042969-.203126-.101563-.402344-.15625-.601563-.023437-.09375-.046875-.1875-.078125-.28125-.082031-.265625-.179688-.527344-.285156-.785156-.050782-.121094-.105469-.234375-.160156-.355469-.070313-.152344-.144532-.300781-.222657-.453125-.0625-.121094-.128906-.242187-.199219-.359375-.042968-.074219-.078124-.148438-.125-.222656l-78.144531-128.226563c-1.835937-2.9375-5.082031-4.691406-8.542969-4.617187h-223.699218c-3.464844-.074219-6.707032 1.679687-8.542969 4.617187l-78.148437 128.304688c-.046876.074219-.082032.101562-.125.179687-.070313.117188-.136719.210938-.199219.335938-.078125.148437-.152344.289062-.222657.441406-.054687.117188-.109374.230469-.160156.347656-.105468.261719-.199218.519532-.285156.785156-.03125.089844-.054688.183594-.078125.277344-.058594.199219-.113281.398438-.15625.601563-.023437.109375-.042969.222656-.0625.335937-.039063.199219-.066406.398438-.09375.59375-.0117188.097656-.0234375.207032-.03125.3125-.0234375.253906-.0351562.507813-.0390625.761719 0 .042969-.0078125.085937-.0078125.132813v.027343c0 .300781.015625.605469.046875.910157.0078125.097656.0234375.199218.0351562.296874.0234378.203126.0546878.398438.0898438.589844.023437.125.046875.246094.074219.367188.039062.175781.085937.347656.136718.519531.03125.121094.0625.238281.097657.355469.078125.246094.167969.488281.269531.730468.039062.101563.089844.199219.132812.300782.085938.1875.175782.378906.273438.5625.054688.101562.113281.199218.171875.300781.09375.160156.1875.316406.285156.472656.066407.101563.132813.199219.203125.292969.105469.152344.21875.300781.335938.453125.070312.085937.136718.171875.207031.257813.035156.039062.0625.078124.09375.117187l190 218.339844c.066406.074219.136719.136719.203125.207031.136719.148438.277344.300781.425781.441406.101563.097656.210938.191406.316407.289063.152343.132812.300781.257812.460937.382812.113281.085938.222656.167969.335937.25.167969.121094.34375.234375.523438.34375.105469.070313.214844.136719.324219.203125.199219.109375.402343.214844.601562.3125.097657.046875.199219.101563.300781.144532.226563.097656.457032.1875.691407.269531.089843.03125.171875.070312.261719.101562.253906.082031.511718.148438.773437.210938.074219.019531.152344.042969.230469.058593.273437.0625.550781.101563.832031.136719.070313.011719.136719.023438.199219.03125.707031.078125 1.414062.078125 2.121094 0 .066406-.007812.132812-.019531.199218-.03125.28125-.035156.558594-.074219.832032-.136719.078124-.015624.15625-.039062.234374-.058593.257813-.0625.515626-.128907.769532-.210938.089844-.027343.171875-.066406.261718-.101562.234376-.082031.464844-.171875.691407-.269531.101562-.046876.199219-.101563.300781-.144532.199219-.101562.40625-.199218.601562-.3125.109376-.066406.21875-.132812.324219-.203125.179688-.109375.351563-.222656.523438-.34375.113281-.082031.222656-.164062.335937-.25.15625-.125.308594-.25.457032-.382812.109374-.097657.214843-.191407.320312-.289063.148438-.144531.289062-.292968.425781-.441406.066407-.070312.136719-.132812.199219-.207031l190-218.339844c.035156-.039063.0625-.078125.097656-.117187.070313-.085938.136719-.171876.207032-.257813.125-.140625.242187-.285156.347656-.441406zm-208.183594 185.878906-158.039062-181.644531h158.039062zm20-181.644531h158.042969l-158.042969 181.644531zm162.207031-20h-162.207031v-108h96.230469zm-278.433593-108h96.226562v108h-162.207031zm0 0"/></svg>