<svg height="433pt" viewBox="0 -1 433.6 433" width="433pt" xmlns="http://www.w3.org/2000/svg"><path d="m90 50.300781h333.699219c.007812-22.09375-17.90625-40.007812-40-40h-333.699219c-22.09375-.007812-40.007812 17.90625-40 40v244.199219c-.007812 22.09375 17.90625 40.007812 40 40v-244.199219c-.007812-22.09375 17.90625-40.007812 40-40zm0 0" fill="transparent"/><path d="m6.800781 249.199219h420v20h-420zm0 0" /><path d="m383.601562.300781h-333.601562c-27.609375.007813-49.9882812 22.390625-50 50v244.199219c.0117188 27.609375 22.390625 49.988281 50 50h156.800781v65.800781h-72.601562c-5.523438 0-10 4.476563-10 10 0 5.523438 4.476562 10 10 10h170c5.523437 0 10-4.476562 10-10 0-5.523437-4.476563-10-10-10h-77.398438v-65.800781h156.800781c27.609376-.011719 49.988282-22.390625 50-50v-244.199219c-.011718-27.609375-22.390624-49.992187-50-50zm30 294.199219c-.050781 16.546875-13.453124 29.953125-30 30h-333.601562c-16.546875-.046875-29.953125-13.453125-30-30v-244.199219c.046875-16.550781 13.453125-29.953125 30-30h333.699219c16.550781.046875 29.953125 13.449219 30 30v244.199219zm0 0" /></svg>