<svg height="400pt" viewBox="0 -4 400.002 400" width="400pt" xmlns="http://www.w3.org/2000/svg"><g fill="transparent"><path d="m75.925781 308.339844 26.480469-31.210938c-10.117188-15.199218-17.300781-32.15625-21.179688-50l-41.226562-3.730468v-54.636719l41.226562-3.726563c3.878907-17.84375 11.0625-34.800781 21.179688-50l-26.480469-31.210937 25.832031-25.300781-16.382812-13.332032-39.449219 38.628906 26.480469 31.210938c-10.117188 15.199219-17.300781 32.15625-21.179688 50l-41.226562 3.730469v54.636719l41.226562 3.726562c3.878907 17.84375 11.0625 34.800781 21.179688 50l-26.480469 31.210938 39.449219 38.644531 16.382812-13.335938zm0 0"/><path d="m312.757812 71.121094 15.484376-12.601563-13.617188-13.332031-19.816406 16.125c6.195312 2.867188 12.191406 6.140625 17.949218 9.808594zm0 0"/><path d="m147.242188 71.121094c15.621093-9.949219 32.921874-16.976563 51.058593-20.742188l3.804688-40.375h-30l-3.804688 40.375c-11.417969 2.371094-22.527343 6.039063-33.109375 10.9375zm0 0"/><path d="m312.757812 321.039062c-5.757812 3.667969-11.753906 6.941407-17.949218 9.808594l19.816406 16.132813 13.617188-13.335938zm0 0"/><path d="m147.242188 321.039062-12.050782 9.808594c10.582032 4.894532 21.691406 8.5625 33.109375 10.933594l3.800781 40.375h30l-3.800781-40.375c-18.136719-3.765625-35.4375-10.792969-51.058593-20.742188zm0 0"/></g><path d="m200 253.128906c-32 0-58.039062-25.59375-58.039062-57.050781 0-31.453125 26.039062-57.046875 58.039062-57.046875s58.039062 25.59375 58.039062 57.046875c0 31.457031-26.039062 57.050781-58.039062 57.050781zm0-94.097656c-20.976562 0-38.039062 16.621094-38.039062 37.046875 0 20.429687 17.0625 37.050781 38.039062 37.050781s38.039062-16.621094 38.039062-37.050781c0-20.425781-17.0625-37.046875-38.039062-37.046875zm0 0"/><path d="m227.898438 392.160156h-55.789063c-5.160156 0-9.472656-3.925781-9.957031-9.0625l-3.125-33.199218c-14.339844-3.660157-28.109375-9.261719-40.925782-16.65625l-26.402343 21.488281c-3.945313 3.210937-9.675781 2.949219-13.308594-.609375l-39.460937-38.636719c-3.75-3.671875-4.023438-9.613281-.628907-13.613281l21.734375-25.617188c-7.4375-12.421875-13.109375-25.824218-16.84375-39.8125l-34.089844-3.082031c-5.15625-.46875-9.101562-4.785156-9.101562-9.960937v-54.636719c0-5.175781 3.945312-9.492188 9.101562-9.960938l34.089844-3.082031c3.734375-13.988281 9.40625-27.390625 16.84375-39.8125l-21.734375-25.617188c-3.394531-4-3.121093-9.941406.628907-13.613281l39.449218-38.636719c3.632813-3.558593 9.363282-3.820312 13.308594-.609374l26.398438 21.484374c12.820312-7.390624 26.59375-12.996093 40.933593-16.652343l3.125-33.199219c.484375-5.136719 4.796875-9.0625 9.957031-9.0625h55.800782c5.160156 0 9.472656 3.925781 9.957031 9.0625l3.125 33.199219c14.339844 3.65625 28.113281 9.261719 40.933594 16.652343l26.398437-21.484374c3.945313-3.210938 9.675782-2.949219 13.3125.609374l39.445313 38.640626c3.746093 3.671874 4.023437 9.613281.628906 13.613281l-21.738281 25.617187c7.441406 12.425782 13.109375 25.824219 16.847656 39.816406l34.089844 3.082032c5.152344.464844 9.097656 4.785156 9.101562 9.957031v54.636719c-.003906 5.175781-3.949218 9.496094-9.101562 9.960937l-34.089844 3.082031c-3.738281 13.988282-9.40625 27.390626-16.847656 39.8125l21.734375 25.613282c3.394531 4 3.121093 9.941406-.628907 13.613281l-39.449218 38.636719c-3.632813 3.558594-9.363282 3.820312-13.308594.609375l-26.398438-21.488281c-12.820312 7.394531-26.59375 12.996093-40.933593 16.65625l-3.125 33.199218c-.484375 5.136719-4.796875 9.058594-9.957031 9.0625zm-46.6875-20h37.589843l2.949219-31.316406c.414062-4.367188 3.625-7.957031 7.925781-8.851562 16.949219-3.511719 33.121094-10.082032 47.71875-19.386719 3.632813-2.316407 8.339844-2.039063 11.683594.679687l24.941406 20.300782 26.414063-25.871094-20.457032-24.113282c-2.882812-3.394531-3.171874-8.289062-.707031-12 9.433594-14.160156 16.125-29.964843 19.730469-46.589843.925781-4.273438 4.519531-7.453125 8.871094-7.847657l32.128906-2.898437v-36.367187l-32.128906-2.902344c-4.355469-.390625-7.949219-3.570313-8.871094-7.847656-3.605469-16.625-10.300781-32.429688-19.738281-46.589844-2.460938-3.710938-2.175781-8.601563.707031-12l20.457031-24.109375-26.414062-25.871094-24.941407 20.300781c-3.339843 2.71875-8.046874 2.996094-11.683593.679688-14.597657-9.304688-30.765625-15.875-47.71875-19.386719-4.296875-.894531-7.511719-4.484375-7.925781-8.851563l-2.949219-31.316406h-37.585938l-2.949219 31.316406c-.414062 4.367188-3.628906 7.957032-7.925781 8.851563-16.953125 3.511719-33.121093 10.082031-47.71875 19.386719-3.636719 2.316406-8.34375 2.039062-11.683593-.679688l-24.941407-20.300781-26.414062 25.871094 20.457031 24.113281c2.882812 3.394531 3.171875 8.289062.707031 12-9.433593 14.15625-16.128906 29.960938-19.738281 46.585938-.925781 4.273437-4.519531 7.453124-8.871094 7.84375l-32.128906 2.90625v36.363281l32.128906 2.898437c4.355469.394532 7.949219 3.574219 8.871094 7.851563 3.609375 16.625 10.304688 32.429687 19.738281 46.589843 2.464844 3.710938 2.175781 8.601563-.707031 12l-20.457031 24.109376 26.414062 25.871093 24.941407-20.300781c3.339843-2.71875 8.046874-2.992188 11.683593-.679688 14.597657 9.308594 30.765625 15.878907 47.71875 19.390626 4.296875.890624 7.511719 4.480468 7.925781 8.851562zm0 0"/></svg>